<svg preserveAspectRatio="xMidYMid meet" overflow="visible" style="display: block;" width="17.986" height="18" viewBox="0 0 17.986 18" fill="none" xmlns="http://www.w3.org/2000/svg">
<path id="Vector" d="M6.43629 11.4246L6.51126 11.4996C11.0412 16.0403 13.5793 16.5543 13.6114 16.565C13.8577 16.5971 14.1576 16.5114 14.3718 16.3294L16.5778 14.134C16.5457 13.9948 16.4279 13.802 16.3529 13.7378L13.9969 12.1207C13.8149 12.0029 13.5793 11.9708 13.3544 12.035L12.3156 12.6454C11.9836 12.8061 11.0091 13.2451 10.1417 12.9774L9.94889 12.881C9.94889 12.881 9.85251 12.8168 9.78825 12.7739C9.31705 12.4634 8.34252 11.8422 7.1431 10.6C5.9758 9.41127 5.48318 8.6188 5.21545 8.19043C5.17262 8.11547 5.14049 8.05123 5.09765 8.00839C4.66929 7.39797 5.04411 6.31635 5.30113 5.72734L5.34396 5.64169L5.9758 4.61359C6.04006 4.3994 6.00793 4.15311 5.87942 3.96034L4.28376 1.62576C4.24092 1.57221 4.06958 1.4651 3.95177 1.43297L1.69215 3.6819C1.53151 3.86395 1.44584 4.14238 1.46726 4.41011C1.46726 4.41011 1.97059 6.91606 6.46842 11.4246V11.4032L6.43629 11.4246ZM13.6757 17.9893C13.5793 17.9893 13.4829 17.9893 13.3865 17.9786C13.2366 17.9572 10.4094 17.4538 5.49389 12.5169L5.41893 12.442C0.492725 7.50505 0.0322325 4.69927 0.0108143 4.59218C-0.0534405 3.88538 0.171451 3.21069 0.610526 2.70736L3.00937 0.319245C3.24497 0.0836443 3.57696 -0.0341653 3.94107 0.00867119C4.48723 0.0515077 5.09765 0.39421 5.39751 0.822576L7.01459 3.18928C7.40012 3.79971 7.47508 4.52791 7.23948 5.18117L7.18593 5.29899L6.54338 6.35918C6.39346 6.71258 6.28637 7.11952 6.27566 7.29087C6.30778 7.3337 6.33991 7.38728 6.37204 7.45153C6.60764 7.82635 7.04671 8.54386 8.10692 9.62548C9.19925 10.7392 10.0881 11.3175 10.5165 11.5852C10.5486 11.6067 10.5807 11.6281 10.6021 11.6388C10.8377 11.6709 11.2447 11.5745 11.5767 11.4032L12.7654 10.7178C13.4186 10.4822 14.1576 10.5679 14.7466 10.9427L17.1347 12.5812C17.5738 12.9025 17.9379 13.5557 17.9807 14.1019C18.0129 14.4767 17.8951 14.798 17.6702 15.0336L15.3035 17.3896C14.8215 17.7966 14.2433 18 13.665 18H13.6757V17.9893Z" fill="black"/>
</svg>
