<svg width="159" height="80" viewBox="0 0 159 80" fill="none" xmlns="http://www.w3.org/2000/svg">
<rect width="159" height="80" fill="white"/>
<g clip-path="url(#clip0_12_3058)">
<path d="M124.057 73.7488H126.183C126.183 73.7488 135.379 73.6497 135.712 71.6231L135.847 66.0118L137.054 64.994L135.82 63.0845L137.054 57.5903C137.054 57.5903 126.741 49.1868 110.943 49.0697C110.943 49.0697 97.8106 36.2978 77.4188 35.8475C77.4188 35.8475 51.1996 34.5054 27.8896 46.6018L24.9803 46.2685L24.4219 47.5025L26.2143 49.7452L25.3586 56.7617L25.9441 64.4716C25.9441 64.4716 23.0979 69.0562 29.0424 70.4162C29.0424 70.4162 35.8067 73.9559 41.2109 73.7308C41.2109 73.7308 68.1867 73.1994 79.9408 73.2894C91.6949 73.3795 109.168 73.7488 109.168 73.7488H124.075H124.057Z" fill="white"/>
<path d="M124.058 74.6495H109.152C108.963 74.6495 91.5343 74.2802 79.9153 74.1901C68.3053 74.1 41.4826 74.6224 41.2124 74.6314C35.9703 74.8566 29.6384 71.7402 28.7107 71.2719C26.5941 70.7675 25.225 69.8037 24.6396 68.3986C23.928 66.6963 24.6666 64.94 24.9998 64.2734L24.4324 56.7436L25.252 50.0154L23.3516 47.6376L24.4144 45.3048L27.7109 45.6831C50.9129 33.7488 77.2042 34.9468 77.4654 34.9558C96.6142 35.3791 109.287 46.3226 111.305 48.178C127.04 48.4122 137.2 56.5455 137.623 56.8967L138.055 57.248L136.785 62.9134L138.244 65.1651L136.74 66.4351L136.605 71.7672C136.209 74.1901 129.913 74.6134 126.202 74.6495H124.067H124.058ZM76.979 72.3887C78.0418 72.3887 79.0326 72.3887 79.9333 72.3977C91.5613 72.4878 108.999 72.8481 109.17 72.8571H126.184C130.291 72.812 134.281 72.1725 134.813 71.47L134.957 65.5885L135.867 64.8229L134.858 63.2647L136.047 57.9686C133.948 56.4374 124.428 50.0785 110.935 49.9884H110.575L110.314 49.7362C110.188 49.6101 97.1816 37.1985 77.3933 36.7662C77.1051 36.7482 51.111 35.5773 28.2964 47.4214L28.0532 47.5475L25.5132 47.2593L25.4502 47.3944L27.1345 49.502L26.2428 56.8067L26.8463 64.7238L26.6931 64.976C26.6931 64.976 25.7834 66.4891 26.3149 67.7411C26.6751 68.5968 27.6569 69.2093 29.2331 69.5695L29.4493 69.6506C29.5123 69.6866 36.0604 73.0732 41.1583 72.8661C41.4285 72.8661 64.3062 72.4157 76.979 72.4157V72.3887Z" fill="#003D33"/>
<path d="M139 78.1982H20V79.9996H139V78.1982Z" fill="#003D33"/>
<path d="M75.0393 55.104L74.9648 56.9038L85.26 57.3299L85.3345 55.5301L75.0393 55.104Z" fill="#003D33"/>
<path d="M104.847 49.6102C100.695 45.8543 91.0668 39.1441 75.4037 39.1441C75.4037 39.1441 59.038 38.2884 42.0059 44.8995C42.0059 44.8995 37.5204 47.2504 47.8334 48.6014C47.8334 48.6014 74.4219 51.7809 103.316 52.0601C104.622 52.0691 106.451 51.0693 104.838 49.6102H104.847Z" fill="#D6FCF5"/>
<path d="M103.341 52.9607C103.341 52.9607 103.323 52.9607 103.305 52.9607C74.6902 52.6905 47.9846 49.529 47.7234 49.502C42.6885 48.8445 40.4277 47.9168 40.1575 46.3856C39.9774 45.3588 40.815 44.5211 41.5806 44.1158L41.6707 44.0708C58.6939 37.4597 75.2847 38.2433 75.4468 38.2523C91.236 38.2523 101.018 44.9535 105.44 48.9436C106.566 49.9613 106.431 50.8891 106.251 51.3484C105.836 52.4112 104.476 52.9607 103.341 52.9607ZM41.9589 46.0884C42.1391 46.2955 43.1118 47.0881 47.9486 47.7186C48.2008 47.7456 74.8073 50.8981 103.323 51.1683C103.945 51.1683 104.512 50.8711 104.575 50.7089C104.575 50.7089 104.539 50.5648 104.242 50.2946C100.009 46.4757 90.6326 40.0627 75.4018 40.0627C75.1946 40.0537 59.0091 39.2971 42.3913 45.7371C42.2201 45.8362 42.04 45.9893 41.9679 46.0974L41.9589 46.0884Z" fill="#003D33"/>
<path d="M78.8867 38.8723L75.3164 39.355L76.907 51.1191L80.4773 50.6364L78.8867 38.8723Z" fill="#003D33"/>
<path d="M26.2072 49.7544C26.2072 49.7544 29.6749 52.2673 33.5749 53.2761C33.5749 53.2761 30.8368 56.1403 25.3516 56.7708" fill="#E56A01"/>
<path d="M25.4493 57.6626L25.2422 55.8702C28.2865 55.5279 30.4302 54.4381 31.6732 53.6275C28.4036 52.4385 25.8006 50.5741 25.6745 50.484L26.7283 49.0249C26.7283 49.0249 30.115 51.4568 33.7898 52.4115L35.2759 52.7988L34.2221 53.9067C34.105 54.0328 31.1958 57.0141 25.4493 57.6716V57.6626Z" fill="#003D33"/>
<path d="M133.21 61.1486L130.39 61.2297C124.365 60.8334 124.383 57.5278 124.383 57.5278L130.949 57.5999C130.949 57.5999 133.21 59.1131 133.21 61.1486Z" fill="#D6FCF5"/>
<path d="M130.408 62.1302C123.536 61.6798 123.473 57.6897 123.473 57.5186V56.6089L131.219 56.699L131.444 56.8431C131.552 56.9151 134.11 58.6445 134.11 61.1394V62.0131L130.417 62.1212L130.408 62.1302ZM125.643 58.4373C126.166 59.1759 127.418 60.1306 130.444 60.3288L132.11 60.2747C131.777 59.5001 131.084 58.8336 130.642 58.4913L125.643 58.4373Z" fill="#003D33"/>
<path d="M114.411 77.2526C119.346 77.2526 123.346 73.2523 123.346 68.3177C123.346 63.3831 119.346 59.3828 114.411 59.3828C109.477 59.3828 105.477 63.3831 105.477 68.3177C105.477 73.2523 109.477 77.2526 114.411 77.2526Z" fill="#D6FCF5"/>
<path d="M114.412 79.0541C108.495 79.0541 103.676 74.2354 103.676 68.3178C103.676 62.4003 108.495 57.5815 114.412 57.5815C120.33 57.5815 125.148 62.4003 125.148 68.3178C125.148 74.2354 120.33 79.0541 114.412 79.0541ZM114.412 61.1753C110.476 61.1753 107.279 64.3728 107.279 68.3088C107.279 72.2449 110.476 75.4424 114.412 75.4424C118.348 75.4424 121.546 72.2449 121.546 68.3088C121.546 64.3728 118.348 61.1753 114.412 61.1753Z" fill="#003D33"/>
<path d="M49.0482 77.2526C53.9828 77.2526 57.9831 73.2523 57.9831 68.3177C57.9831 63.3831 53.9828 59.3828 49.0482 59.3828C44.1136 59.3828 40.1133 63.3831 40.1133 68.3177C40.1133 73.2523 44.1136 77.2526 49.0482 77.2526Z" fill="#D6FCF5"/>
<path d="M49.0488 79.0541C43.1312 79.0541 38.3125 74.2354 38.3125 68.3178C38.3125 62.4003 43.1312 57.5815 49.0488 57.5815C54.9664 57.5815 59.7851 62.4003 59.7851 68.3178C59.7851 74.2354 54.9664 79.0541 49.0488 79.0541ZM49.0488 61.1753C45.1128 61.1753 41.9153 64.3728 41.9153 68.3088C41.9153 72.2449 45.1128 75.4424 49.0488 75.4424C52.9848 75.4424 56.1823 72.2449 56.1823 68.3088C56.1823 64.3728 52.9848 61.1753 49.0488 61.1753Z" fill="#003D33"/>
</g>
<defs>
<clipPath id="clip0_12_3058">
<rect width="119" height="45.0799" fill="white" transform="translate(20 34.9199)"/>
</clipPath>
</defs>
</svg>
